<svg xmlns="http://www.w3.org/2000/svg" viewBox="0 0 33 27.93"><title>Asset 19</title><g id="Layer_2" data-name="Layer 2"><g id="Layer_1-2" data-name="Layer 1"><path d="M32.9,5.11l0,0h0l-10-5L22.71,0a1.1,1.1,0,0,0-.27,0,1.14,1.14,0,0,0-1,.53L15.74,9.84l7.19,11.69,10-16.26A.12.12,0,0,0,32.9,5.11Z"/><polygon points="12.58 7.72 12.58 18.32 22 23.03 12.58 7.72"/><path d="M23.42,23.74l7.76,3.88c1,.5,1.83.15,1.83-.79V8.16Z"/><path d="M10.94,5.13,1.22.26A1.11,1.11,0,0,0,.72.13C.3.13,0,.46,0,1V22a1.82,1.82,0,0,0,.91,1.48l8.56,4.28a1.39,1.39,0,0,0,.62.16c.53,0,.91-.41.91-1.1V5.22A.11.11,0,0,0,10.94,5.13Z"/></g></g></svg>